HIERARCHY
ROOT Hips
{
	OFFSET -3.958830 18.904000 13.208200
	CHANNELS 6 Xposition Yposition Zposition Zrotation Yrotation Xrotation 
	JOINT LHipJoint
	{
		OFFSET 0.000000 0.000000 0.000000
		CHANNELS 3 Zrotation Yrotation Xrotation
		JOINT LeftUpLeg
		{
			OFFSET 1.800000 -1.400000 0.085000
			CHANNELS 3 Zrotation Yrotation Xrotation
			JOINT LeftLeg
			{
				OFFSET 2.215000 -6.000000 0.000000
				CHANNELS 3 Zrotation Yrotation Xrotation
				JOINT LeftFoot
				{
					OFFSET 2.500000 -6.900000 0.000000
					CHANNELS 3 Zrotation Yrotation Xrotation
					JOINT LeftToeBase
					{
						OFFSET 0.200000 -0.500000 1.950000
						CHANNELS 3 Zrotation Yrotation Xrotation
						End Site
						{
							OFFSET 0.000000 0.000000 0.000000
						}
					}
				}
			}
		}
	}
	JOINT RHipJoint
	{
		OFFSET 0.000000 0.000000 0.000000
		CHANNELS 3 Zrotation Yrotation Xrotation
		JOINT RightUpLeg
		{
			OFFSET -1.800000 -1.400000 0.085000
			CHANNELS 3 Zrotation Yrotation Xrotation
			JOINT RightLeg
			{
				OFFSET -2.215000 -6.000000 0.000000
				CHANNELS 3 Zrotation Yrotation Xrotation
				JOINT RightFoot
				{
					OFFSET -2.500000 -6.900000 0.000000
					CHANNELS 3 Zrotation Yrotation Xrotation
					JOINT RightToeBase
					{
						OFFSET -0.200000 -0.500000 1.950000
						CHANNELS 3 Zrotation Yrotation Xrotation
						End Site
						{
							OFFSET 0.000000 0.000000 0.000000
						}
					}
				}
			}
		}
	}
	JOINT LowerBack
	{
		OFFSET 0.000000 0.000000 0.000000
		CHANNELS 3 Zrotation Yrotation Xrotation
		JOINT Spine
		{
			OFFSET -0.087000 1.940000 -0.288900
			CHANNELS 3 Zrotation Yrotation Xrotation
			JOINT Spine1
			{
				OFFSET 0.000000 1.950000 0.060000
				CHANNELS 3 Zrotation Yrotation Xrotation
				JOINT Neck
				{
					OFFSET 0.000000 0.000000 0.000000
					CHANNELS 3 Zrotation Yrotation Xrotation
					JOINT Neck1
					{
						OFFSET 0.000000 1.600000 0.340000
						CHANNELS 3 Zrotation Yrotation Xrotation
						JOINT Head
						{
							OFFSET 0.000000 1.667000 -0.240000
							CHANNELS 3 Zrotation Yrotation Xrotation
							End Site
							{
								OFFSET 0.000000 0.000000 0.000000
							}
						}
					}
				}
				JOINT LeftShoulder
				{
					OFFSET 0.000000 0.000000 0.000000
					CHANNELS 3 Zrotation Yrotation Xrotation
					JOINT LeftArm
					{
						OFFSET 2.700000 1.550000 -0.730000
						CHANNELS 3 Zrotation Yrotation Xrotation
						JOINT LeftForeArm
						{
							OFFSET 5.450000 0.000000 0.000000
							CHANNELS 3 Zrotation Yrotation Xrotation
							JOINT LeftHand
							{
								OFFSET 3.450000 0.000000 0.000000
								CHANNELS 3 Zrotation Yrotation Xrotation
								JOINT LeftHandIndex1
								{
									OFFSET 0.750000 0.000000 0.000000
									CHANNELS 3 Zrotation Yrotation Xrotation
									End Site
									{
										OFFSET 0.000000 0.000000 0.000000
									}
								}
							}
						}
					}
				}
				JOINT RightShoulder
				{
					OFFSET 0.000000 0.000000 0.000000
					CHANNELS 3 Zrotation Yrotation Xrotation
					JOINT RightArm
					{
						OFFSET -2.700000 1.550000 -0.730000
						CHANNELS 3 Zrotation Yrotation Xrotation
						JOINT RightForeArm
						{
							OFFSET -5.450000 0.000000 0.000000
							CHANNELS 3 Zrotation Yrotation Xrotation
							JOINT RightHand
							{
								OFFSET -3.450000 0.000000 0.000000
								CHANNELS 3 Zrotation Yrotation Xrotation
								JOINT RightHandIndex1
								{
									OFFSET -0.750000 0.000000 0.000000
									CHANNELS 3 Zrotation Yrotation Xrotation
									End Site
									{
										OFFSET 0.000000 0.000000 0.000000
									}
								}
							}
						}
					}
				}
			}
		}
	}
}
MOTION
Frames: 11
Frame Time: 0.016667
0.034750 16.892930 -0.451050 -2.095375 -4.266303 5.884625 -15.101244 13.147717 2.738177 5.364046 -1.661564 -14.592865 -9.231292 6.858433 14.801876 -0.489477 4.650307 3.215066 -0.045470 -0.440490 -0.016710 18.334066 -11.120764 2.447852 -6.904090 1.179760 -14.173860 9.057121 -6.304958 16.814408 0.149528 -4.061611 3.195583 -0.020110 0.674620 0.087670 -3.705605 -1.081122 -6.491954 6.245912 1.384454 1.874305 -1.948306 1.322273 4.104023 1.263747 -2.658031 -5.762914 -4.856639 4.033792 25.367000 -2.982030 3.425860 4.537570 -17.820809 3.644203 0.225922 -54.518003 -2.873009 -4.571145 -18.070704 -27.725519 2.182358 -4.207160 2.982887 0.123280 0.517940 -0.563380 0.107280 15.477126 -1.359144 2.723099 57.124521 -0.595585 -8.811329 23.857804 32.231004 3.399181 2.045265 -1.601297 -0.456740 0.236640 0.209650 -0.204960 
0.033990 16.894620 -0.455880 -2.088315 -4.243985 5.864155 -15.104616 13.157945 2.743199 5.353012 -1.681653 -14.697946 -9.202824 6.875775 14.950084 -0.493982 4.656622 3.209566 -0.041610 -0.434830 -0.014740 18.329508 -11.121122 2.442873 -6.850395 1.218516 -14.361857 8.942153 -6.320362 17.153126 0.149326 -4.062808 3.192139 -0.015650 0.672890 0.087220 -3.693741 -1.100288 -6.493385 6.153557 1.355298 1.940600 -1.875936 1.297961 4.152722 1.246119 -2.650458 -5.776715 -4.851171 4.072951 25.375920 -2.952360 3.445280 4.406440 -17.694582 3.650259 0.242537 -54.557362 -3.024738 -4.535803 -18.062188 -28.302404 2.269743 -4.203311 2.986033 0.125660 0.516650 -0.561230 0.107300 15.396827 -1.364494 2.718660 57.027708 -0.458066 -8.740148 24.087160 32.696037 3.559959 2.039815 -1.606037 -0.457190 0.239030 0.209320 -0.205940 
0.032930 16.898900 -0.465710 -2.132282 -4.198425 5.804311 -15.107372 13.178566 2.753784 5.397719 -1.721018 -14.917933 -9.159689 6.925643 15.283623 -0.500500 4.674938 3.195119 -0.034770 -0.426800 -0.007570 18.322995 -11.124208 2.437584 -6.700867 1.305949 -14.738287 8.719782 -6.363267 17.887827 0.146623 -4.067099 3.185615 -0.010890 0.665880 0.085710 -3.679295 -1.132581 -6.505319 6.101818 1.296560 2.130446 -1.785925 1.254657 4.213669 1.227234 -2.654584 -5.835282 -4.889448 4.130082 25.497602 -2.904910 3.475230 4.123130 -17.515898 3.571962 0.291219 -54.542294 -3.303482 -4.469541 -18.075656 -29.387157 2.441790 -4.193097 2.988560 0.134090 0.510780 -0.554280 0.105020 15.266390 -1.277635 2.757221 56.835542 -0.234075 -8.660506 24.420114 33.639434 3.856581 2.030523 -1.609598 -0.457310 0.243480 0.208730 -0.209650 
0.032760 16.904690 -0.478870 -2.193568 -4.126091 5.741858 -15.110046 13.202657 2.765731 5.415323 -1.771876 -15.183292 -9.054024 6.957028 15.633138 -0.513905 4.686851 3.182574 -0.025360 -0.416550 0.002110 18.316400 -11.126295 2.433137 -6.512217 1.446888 -15.326977 8.444673 -6.439808 18.980074 0.143730 -4.088942 3.171682 -0.002590 0.658860 0.082610 -3.665209 -1.170831 -6.519055 6.075426 1.206646 2.361097 -1.691432 1.183592 4.323496 1.204532 -2.655109 -5.913884 -4.916541 4.224827 25.575680 -2.876060 3.555520 3.811100 -17.249153 3.453864 0.367415 -54.488271 -3.693632 -4.350994 -18.229055 -30.926614 2.724938 -4.181213 2.996012 0.143030 0.506190 -0.549230 0.102560 15.057442 -1.161020 2.799405 56.592559 0.115932 -8.532166 24.766827 34.956366 4.247820 2.015578 -1.618249 -0.459870 0.249300 0.207500 -0.215790 
0.033310 16.912080 -0.495120 -2.290884 -4.009274 5.671358 -15.110344 13.226549 2.773909 5.414282 -1.829657 -15.489762 -8.840021 6.958862 16.008720 -0.527897 4.688131 3.174311 -0.017350 -0.406450 0.011890 18.312238 -11.127649 2.436094 -6.295703 1.635466 -16.077659 8.179508 -6.558684 20.345425 0.136737 -4.135587 3.145801 0.005560 0.653870 0.081630 -3.658894 -1.204035 -6.536024 6.130317 1.100489 2.624645 -1.646755 1.100072 4.479018 1.195780 -2.638930 -6.013340 -4.913261 4.327691 25.659452 -2.873470 3.673280 3.510850 -16.867950 3.304559 0.459544 -54.397444 -4.256057 -4.137254 -18.430236 -32.828716 3.099948 -4.170779 3.007338 0.149230 0.503550 -0.543160 0.100060 14.702254 -1.036953 2.854549 56.391492 0.596127 -8.344736 25.130473 36.608891 4.736674 1.999511 -1.630654 -0.461360 0.255870 0.206710 -0.220280 
0.033710 16.920510 -0.513980 -2.438730 -3.885109 5.593183 -15.107581 13.245388 2.777519 5.463922 -1.886522 -15.811424 -8.578774 6.947914 16.389926 -0.550560 4.688645 3.165382 -0.008380 -0.396850 0.026530 18.311408 -11.124468 2.452420 -6.063932 1.889657 -16.999282 7.992793 -6.751808 22.011643 0.120772 -4.221889 3.102330 0.014540 0.647010 0.081020 -3.662309 -1.226281 -6.562035 6.298215 0.980454 2.941739 -1.689221 1.011449 4.666548 1.233973 -2.596481 -6.144156 -4.860053 4.377762 25.752618 -2.997120 3.827140 3.082140 -16.392442 3.097216 0.563464 -54.273412 -4.944494 -3.863223 -18.531964 -35.028870 3.509651 -4.159348 3.015653 0.161570 0.500330 -0.534810 0.095160 14.152404 -0.881875 2.944378 56.313786 1.197732 -8.122487 25.491141 38.545237 5.303662 1.978495 -1.643506 -0.466070 0.264700 0.206990 -0.228660 
0.033170 16.930680 -0.534530 -2.594949 -3.754651 5.449069 -15.104593 13.267829 2.777340 5.534156 -1.922903 -16.050399 -8.282439 6.921273 16.722217 -0.577181 4.678732 3.152762 0.005610 -0.379720 0.046380 18.310657 -11.113649 2.480131 -5.850185 2.193618 -17.995025 7.816776 -6.998834 23.948566 0.093312 -4.347261 3.041455 0.027050 0.627860 0.078220 -3.666335 -1.260464 -6.600065 6.509606 0.831019 3.354071 -1.741679 0.903408 4.858521 1.275066 -2.586931 -6.284142 -4.887584 4.487979 25.998499 -3.134610 4.046190 2.432810 -15.917287 2.864429 0.673530 -54.050295 -5.697018 -3.547602 -18.558064 -37.498716 3.956098 -4.140138 3.024765 0.179630 0.489540 -0.519630 0.085750 13.593485 -0.679952 3.036859 56.166530 1.920049 -7.854445 25.745099 40.730437 5.933771 1.956080 -1.653768 -0.468310 0.271430 0.206540 -0.241080 
0.031460 16.942080 -0.556440 -2.780591 -3.588481 5.259506 -15.100704 13.286814 2.766659 5.627839 -1.946570 -16.244431 -7.910906 6.879974 17.077769 -0.602991 4.671896 3.142314 0.016820 -0.367470 0.064140 18.312246 -11.092194 2.526027 -5.655630 2.555494 -19.050901 7.767121 -7.337069 26.093248 0.053440 -4.534336 2.957049 0.036310 0.614040 0.080570 -3.676148 -1.294120 -6.646544 6.788002 0.667282 3.805286 -1.776012 0.783736 5.082574 1.315907 -2.572039 -6.437375 -4.911566 4.563931 26.291163 -3.339570 4.255710 1.880750 -15.513062 2.559474 0.818833 -53.737435 -6.459703 -3.244488 -18.444270 -40.451106 4.432102 -4.121803 3.038528 0.197390 0.482280 -0.504890 0.078090 13.104535 -0.412337 3.137829 55.829951 2.706497 -7.553959 25.936250 43.223150 6.642881 1.931936 -1.668670 -0.470670 0.277040 0.207380 -0.251400 
0.027680 16.953340 -0.580220 -2.966279 -3.424713 5.025916 -15.095451 13.301164 2.746048 5.733220 -1.952344 -16.378984 -7.484563 6.815989 17.396745 -0.619916 4.645354 3.137843 0.039900 -0.337310 0.082910 18.317133 -11.059932 2.588492 -5.511429 2.969408 -20.173821 7.794565 -7.757679 28.475067 -0.004351 -4.784802 2.851591 0.051830 0.592960 0.082370 -3.693272 -1.327808 -6.700023 7.112518 0.492347 4.291601 -1.854450 0.659773 5.359224 1.343958 -2.588060 -6.598325 -4.997556 4.649391 26.635224 -3.455660 4.423340 1.311810 -15.029277 2.279838 0.963146 -53.356789 -7.341931 -2.877675 -18.216753 -43.745012 4.937094 -4.092161 3.066941 0.209580 0.470330 -0.485970 0.077290 12.554592 -0.152502 3.254234 55.466487 3.500093 -7.247912 26.169310 46.107566 7.470204 1.906977 -1.698062 -0.462990 0.277550 0.198300 -0.257220 
0.023030 16.964710 -0.604060 -3.160169 -3.219938 4.757606 -15.088124 13.307840 2.719001 5.876652 -1.948322 -16.459704 -7.082912 6.756377 17.685610 -0.642677 4.629942 3.131195 0.061240 -0.311730 0.101590 18.326447 -11.018886 2.661419 -5.394452 3.402436 -21.249706 7.844635 -8.218189 30.870945 -0.069943 -5.075371 2.733542 0.067630 0.576490 0.084290 -3.720953 -1.358448 -6.757168 7.529207 0.280219 4.782914 -2.009732 0.507223 5.661981 1.366686 -2.633060 -6.742837 -5.132105 4.741490 26.976387 -3.592380 4.567640 0.743290 -14.571351 1.997241 1.105143 -52.824165 -8.241130 -2.476888 -17.812745 -47.359405 5.408169 -4.065138 3.093285 0.224400 0.460960 -0.470360 0.075560 12.031751 0.114118 3.347442 55.025623 4.404172 -6.874091 26.193140 49.047685 8.269125 1.878914 -1.725583 -0.460430 0.281090 0.192300 -0.264670 
0.017330 16.976010 -0.629960 -3.363658 -2.926627 4.482386 -15.079252 13.306452 2.686741 6.031386 -1.942089 -16.532009 -6.673509 6.679171 17.902784 -0.659659 4.603475 3.129386 0.083520 -0.281900 0.119790 18.339457 -10.969071 2.744185 -5.312532 3.835385 -22.295189 7.976050 -8.716743 33.165781 -0.140856 -5.388562 2.611047 0.085020 0.560020 0.086080 -3.758098 -1.386462 -6.817044 8.029991 0.015902 5.270961 -2.222804 0.308000 5.985213 1.388045 -2.705532 -6.872914 -5.308004 4.826952 27.278720 -3.768600 4.710000 0.239850 -14.164769 1.692966 1.248559 -52.192756 -9.194500 -2.047376 -16.944299 -51.211198 5.686323 -4.039530 3.120766 0.230890 0.453830 -0.455830 0.074950 11.556398 0.407451 3.419393 54.445935 5.416077 -6.435299 25.982762 52.108146 9.021242 1.852021 -1.756815 -0.453640 0.282910 0.183540 -0.269200 
